
<svg width="200" height="200" viewBox="0 0 200 200" fill="none" xmlns="http://www.w3.org/2000/svg">
  <circle cx="100" cy="100" r="80" fill="#0F352E"/>
  <path d="M100 20C115.913 20 131.174 26.3214 142.426 37.5736C153.679 48.8258 160 64.087 160 80C160 95.913 153.679 111.174 142.426 122.426C131.174 133.679 115.913 140 100 140C84.087 140 68.8258 133.679 57.5736 122.426C46.3214 111.174 40 95.913 40 80C40 64.087 46.3214 48.8258 57.5736 37.5736C68.8258 26.3214 84.087 20 100 20ZM100 40C77.9086 40 60 57.9086 60 80C60 102.091 77.9086 120 100 120C122.091 120 140 102.091 140 80C140 57.9086 122.091 40 100 40Z" fill="#1FB185" opacity="0.3"/>
  <path d="M70 60L85 50M115 50L130 60M140 90L130 110M100 125L70 110M60 90L70 60ZM100 50L115 70M115 70L100 90M100 90L85 70M85 70L100 50Z" stroke="#EEF5F3" stroke-width="2" stroke-linecap="round"/>
  <path d="M20 160C60 140 140 140 180 160C140 180 60 180 20 160Z" fill="#1FB185" opacity="0.8"/>
</svg>
