<svg width="1200" height="630" viewBox="0 0 1200 630" fill="none" xmlns="http://www.w3.org/2000/svg">
  <rect width="1200" height="630" fill="#F7F4EE"/>
  <circle cx="201" cy="132" r="160" fill="#DDF2E8"/>
  <circle cx="1036" cy="507" r="184" fill="#F2E5B8"/>
  <rect x="72" y="68" width="116" height="116" rx="28" fill="#111111"/>
  <path d="M117.453 99L131.776 127.81L163.587 132.43L140.52 154.927L145.965 186.619L117.453 171.63L88.9411 186.619L94.3862 154.927L71.3187 132.43L103.13 127.81L117.453 99Z" fill="white"/>
  <text x="228" y="132" fill="#111111" font-family="Inter, Arial, sans-serif" font-size="28" font-weight="800">Bola na Rede Manager</text>
  <text x="228" y="178" fill="#111111" font-family="Inter, Arial, sans-serif" font-size="72" font-weight="800">
    <tspan x="72" dy="0">O manager brasileiro</tspan>
    <tspan x="72" dy="82">para quem quer</tspan>
    <tspan x="72" dy="82">controlar tudo.</tspan>
  </text>
  <text x="72" y="450" fill="#333333" font-family="Inter, Arial, sans-serif" font-size="30" font-weight="500">
    Carreira • Mercado • Finanças • Staff • Base • Copa do Mundo 2026
  </text>
  <rect x="770" y="128" width="280" height="372" rx="40" fill="#171717"/>
  <rect x="786" y="145" width="248" height="339" rx="28" fill="#FBF8F3"/>
  <rect x="824" y="128" width="172" height="22" rx="0" fill="#171717"/>
  <rect x="808" y="183" width="204" height="128" rx="28" fill="#129367"/>
  <text x="828" y="216" fill="white" font-family="Inter, Arial, sans-serif" font-size="14" font-weight="800">PRÓXIMO JOGO</text>
  <text x="828" y="262" fill="white" font-family="Inter, Arial, sans-serif" font-size="34" font-weight="800">Bahia vs Santos</text>
  <text x="828" y="291" fill="#D8FFF0" font-family="Inter, Arial, sans-serif" font-size="16" font-weight="600">Fonte Nova • 19h30</text>
  <rect x="808" y="332" width="97" height="72" rx="20" fill="#FFFFFF" fill-opacity="0.12"/>
  <rect x="917" y="332" width="97" height="72" rx="20" fill="#FFFFFF" fill-opacity="0.12"/>
  <text x="826" y="357" fill="#D8FFF0" font-family="Inter, Arial, sans-serif" font-size="12" font-weight="800">MORAL</text>
  <text x="825" y="391" fill="white" font-family="Inter, Arial, sans-serif" font-size="28" font-weight="800">88</text>
  <text x="934" y="357" fill="#D8FFF0" font-family="Inter, Arial, sans-serif" font-size="12" font-weight="800">CAIXA</text>
  <text x="934" y="391" fill="white" font-family="Inter, Arial, sans-serif" font-size="28" font-weight="800">R$ 1.2M</text>
  <rect x="808" y="423" width="204" height="42" rx="18" fill="#F3F0E9"/>
  <text x="830" y="450" fill="#111111" font-family="Inter, Arial, sans-serif" font-size="16" font-weight="800">Elenco   Mercado   Finanças</text>
</svg>
